Coordinates
version=1
nRows=29
nColumns=24
inDegrees=yes

Units are S.I. units (second, meters, Newtons, ...)
Angles are in degrees.

endheader
time	pelvis_tilt	pelvis_list	pelvis_rotation	pelvis_tx	pelvis_ty	pelvis_tz	hip_flexion_r	hip_adduction_r	hip_rotation_r	knee_angle_r	ankle_angle_r	subtalar_angle_r	mtp_angle_r	hip_flexion_l	hip_adduction_l	hip_rotation_l	knee_angle_l	ankle_angle_l	subtalar_angle_l	mtp_angle_l	lumbar_extension	lumbar_bending	lumbar_rotation
      5.95000000	     13.64156566	     -4.79637672	     13.04300361	      2.42922075	      0.75071306	     -0.26071552	     -4.66782227	     13.97879637	     -6.87171761	    -13.40124751	     24.21045437	     11.34299951	      0.00000000	     13.21358800	     -6.22692999	     10.43162727	    -72.95047194	     15.36553712	    -10.04008812	      0.00000000	    -31.21872018	      7.13557097	     -3.45337627
      5.95500000	     13.50880204	     -4.78551427	     12.52159055	      2.43615353	      0.75110081	     -0.26068160	     -5.44150913	     13.98301176	     -6.40091730	    -12.91982522	     24.45889760	     11.71937896	      0.00000000	     14.16306750	     -5.99400202	     10.05416080	    -72.22327353	     15.77698391	    -10.86295199	      0.00000000	    -31.19543664	      6.92793494	     -2.77454820
      5.96000000	     13.38287379	     -4.77638955	     11.98142142	      2.44310580	      0.75142269	     -0.26067437	     -6.22552292	     13.97171937	     -5.93456520	    -12.43981080	     24.69956017	     12.10474798	      0.00000000	     15.06546719	     -5.79019840	      9.64596892	    -71.38929807	     16.17744157	    -11.52005069	      0.00000000	    -31.17615590	      6.72818638	     -2.08574997
      5.96500000	     13.26810113	     -4.75215481	     11.40941774	      2.45009061	      0.75170901	     -0.26067011	     -7.02456076	     13.92859276	     -5.44628625	    -11.97729187	     24.96315250	     12.50524510	      0.00000000	     15.89320621	     -5.59473574	      9.21458262	    -70.41963191	     16.52593129	    -12.02866661	      0.00000000	    -31.16501045	      6.50792408	     -1.37219509
      5.97000000	     13.16927939	     -4.72993815	     10.82737665	      2.45709044	      0.75193409	     -0.26070597	     -7.84389550	     13.87064145	     -4.97043951	    -11.51306011	     25.22386720	     12.91825577	      0.00000000	     16.66328668	     -5.42558220	      8.76659475	    -69.34511080	     16.85737312	    -12.40297244	      0.00000000	    -31.16725559	      6.30438190	     -0.66023653
      5.97500000	     13.08492863	     -4.71078845	     10.23348902	      2.46411308	      0.75209849	     -0.26074197	     -8.68197973	     13.80243966	     -4.51046204	    -11.04574211	     25.48808246	     13.34608698	      0.00000000	     17.37277256	     -5.28307928	      8.31279213	    -68.16330889	     17.16736582	    -12.65924765	      0.00000000	    -31.18261815	      6.10126840	      0.05070434
      5.98000000	     13.01785050	     -4.69449884	      9.62341777	      2.47115697	      0.75221082	     -0.26082122	     -9.53772974	     13.71559498	     -4.06327356	    -10.58779196	     25.74710981	     13.79620276	      0.00000000	     18.01582580	     -5.16971225	      7.83051370	    -66.87147581	     17.45660589	    -12.81425120	      0.00000000	    -31.21002786	      5.91504495	      0.76769456
      5.98500000	     12.96428441	     -4.68274987	      9.00505022	      2.47823050	      0.75226268	     -0.26091408	    -10.41080851	     13.61608125	     -3.63823658	    -10.12847686	     26.00246751	     14.26370034	      0.00000000	     18.59691384	     -5.08397857	      7.33830194	    -65.47411680	     17.72982381	    -12.88074858	      0.00000000	    -31.24873462	      5.73563303	      1.47467880
      5.99000000	     12.93337615	     -4.67221191	      8.38295673	      2.48532232	      0.75226298	     -0.26103057	    -11.30730175	     13.50300944	     -3.22941530	     -9.67455220	     26.27145240	     14.74969767	      0.00000000	     19.10469777	     -5.01519638	      6.84832126	    -63.97188068	     17.98403652	    -12.86583461	      0.00000000	    -31.30971734	      5.56515386	      2.17683938
      5.99500000	     12.97075916	     -4.64582300	      7.77574115	      2.49243643	      0.75225357	     -0.26119549	    -12.28573255	     13.36447935	     -2.85343596	     -9.20943276	     26.59614606	     15.27619848	      0.00000000	     19.48458579	     -4.94634717	      6.36799604	    -62.36106242	     18.22390284	    -12.78775301	      0.00000000	    -31.44386926	      5.40154487	      2.83552422
      6.00000000	     12.94536369	     -4.66116268	      7.14630969	      2.49956699	      0.75211357	     -0.26135587	    -13.17474157	     13.23700207	     -2.50770710	     -8.77773185	     26.82280893	     15.79772885	      0.00000000	     19.89526590	     -4.93187153	      5.87823481	    -60.66222008	     18.46079875	    -12.61646968	      0.00000000	    -31.50292009	      5.26546066	      3.53544101
      6.00500000	     12.94985492	     -4.67289657	      6.52528163	      2.50672860	      0.75192880	     -0.26153170	    -14.09775067	     13.09486014	     -2.18408912	     -8.34569774	     27.07379192	     16.33113710	      0.00000000	     20.22061365	     -4.93105972	      5.38473059	    -58.86036008	     18.70558463	    -12.37610413	      0.00000000	    -31.59003081	      5.13534432	      4.19290454
      6.01000000	     12.98395991	     -4.68722454	      5.91261003	      2.51390514	      0.75169905	     -0.26175192	    -15.04599636	     12.93854087	     -1.89776980	     -7.92672230	     27.34764624	     16.88570130	      0.00000000	     20.46287300	     -4.93903520	      4.90425810	    -56.96439087	     18.95093374	    -12.05138867	      0.00000000	    -31.71045277	      5.02029368	      4.83768741
      6.01500000	     13.03719733	     -4.70668996	      5.31655138	      2.52109621	      0.75141340	     -0.26198597	    -16.00506991	     12.77740356	     -1.65220307	     -7.52273365	     27.62726512	     17.45897082	      0.00000000	     20.63602782	     -4.95791145	      4.44329484	    -54.97563260	     19.20251817	    -11.63895903	      0.00000000	    -31.84945639	      4.91645816	      5.45801734
      6.02000000	     13.14258363	     -4.73051892	      4.76065550	      2.52829639	      0.75109066	     -0.26228194	    -17.01443033	     12.61500154	     -1.45165358	     -7.12284861	     27.95300183	     18.08991474	      0.00000000	     20.70617483	     -4.97209232	      4.03754027	    -52.90262486	     19.46766047	    -11.14192912	      0.00000000	    -32.04598256	      4.84338749	      6.02174517
      6.02500000	     13.23702205	     -4.75322284	      4.22688310	      2.53554903	      0.75070564	     -0.26258280	    -18.00511294	     12.44192568	     -1.37015257	     -6.73265106	     28.19335694	     18.73430856	      0.00000000	     20.73263567	     -4.99048278	      3.63037534	    -50.73481477	     19.74175225	    -10.57126981	      0.00000000	    -32.22023590	      4.76836777	      6.55570223
      6.03000000	     13.22416168	     -4.80799565	      3.64654287	      2.54278114	      0.75015272	     -0.26283993	    -18.83091901	     12.27325129	     -1.19970208	     -6.44244438	     28.46766489	     19.26811850	      0.00000000	     20.83113510	     -5.05336432	      3.20265077	    -48.50727154	     19.98952553	     -9.84534261	      0.00000000	    -32.28368999	      4.69916517	      7.14944006
      6.03500000	     13.33845818	     -4.86765226	      3.14163116	      2.55003596	      0.74962916	     -0.26317365	    -19.80561159	     12.11938324	     -1.11203496	     -6.11796552	     28.77563547	     19.92021298	      0.00000000	     20.74342785	     -5.10526834	      2.85978496	    -46.20678273	     20.29483434	     -9.03519306	      0.00000000	    -32.48423648	      4.67204310	      7.65139427
      6.04000000	     13.34717844	     -4.91684527	      2.62502999	      2.55731539	      0.74897285	     -0.26348789	    -20.62496040	     11.93956656	     -1.05882127	     -5.87817040	     29.04026721	     20.46365904	      0.00000000	     20.71488522	     -5.14963001	      2.49699477	    -43.83945803	     20.52431821	     -8.11183712	      0.00000000	    -32.56498166	      4.61936763	      8.17333266
      6.04500000	     13.47116792	     -4.96936758	      2.19070978	      2.56462827	      0.74834243	     -0.26388082	    -21.57771230	     11.77415770	     -1.12443055	     -5.60740573	     29.30206242	     21.17170072	      0.00000000	     20.51271774	     -5.16944937	      2.24025994	    -41.41450107	     20.79333200	     -7.15278758	      0.00000000	    -32.76760103	      4.60546596	      8.61046434
      6.05000000	     13.49151844	     -5.04630022	      1.72190154	      2.57194041	      0.74755606	     -0.26422339	    -22.37218733	     11.61560377	     -1.09805153	     -5.43510724	     29.62213828	     21.74820413	      0.00000000	     20.38093440	     -5.22658432	      1.96079191	    -38.97049379	     21.02231239	     -6.06845895	      0.00000000	    -32.85812706	      4.59135368	      9.09184255
      6.05500000	     13.53146804	     -5.10830731	      1.29779166	      2.57928250	      0.74674449	     -0.26459972	    -23.16829562	     11.44627694	     -1.14396862	     -5.29632654	     29.91117685	     22.33373857	      0.00000000	     20.17910644	     -5.25397734	      1.72946819	    -36.49379849	     21.19976096	     -4.92712186	      0.00000000	    -32.96531926	      4.57649266	      9.53080365
      6.06000000	     13.55554998	     -5.16686892	      0.89753890	      2.58664697	      0.74587075	     -0.26498248	    -23.91840132	     11.27335271	     -1.20310861	     -5.21261685	     30.21316249	     22.90154888	      0.00000000	     19.95413893	     -5.26889147	      1.53202415	    -34.01480612	     21.31829521	     -3.74660645	      0.00000000	    -33.05188519	      4.56101370	      9.94881354
      6.06500000	     13.55404516	     -5.21623488	      0.51259148	      2.59402394	      0.74493683	     -0.26537185	    -24.60192648	     11.08818150	     -1.23872236	     -5.20458099	     30.53908271	     23.42361856	      0.00000000	     19.72103719	     -5.26906613	      1.34911487	    -31.55342529	     21.35727669	     -2.53773155	      0.00000000	    -33.10849194	      4.54521886	     10.32142326
      6.07000000	     13.58515782	     -5.26216477	      0.18495236	      2.60146966	      0.74399138	     -0.26578788	    -25.31398575	     10.91024828	     -1.36336741	     -5.20529071	     30.80412567	     24.01130402	      0.00000000	     19.42132315	     -5.24383658	      1.24216039	    -29.13098259	     21.39454448	     -1.36631631	      0.00000000	    -33.18781139	      4.53078298	     10.69021158
      6.07500000	     13.56091238	     -5.29717519	     -0.14562046	      2.60892064	      0.74296915	     -0.26617320	    -25.91680591	     10.71801068	     -1.40001426	     -5.30503115	     31.14372552	     24.49806700	      0.00000000	     19.16252985	     -5.21062356	      1.12025146	    -26.78634362	     21.32558457	     -0.21029487	      0.00000000	    -33.20552179	      4.49843655	     11.03599502
      6.08000000	     13.54048011	     -5.31371711	     -0.44060757	      2.61642875	      0.74193565	     -0.26660365	    -26.49583561	     10.50865631	     -1.46059096	     -5.45752815	     31.44724060	     24.97798441	      0.00000000	     18.88329378	     -5.14192466	      1.02672251	    -24.54069311	     21.22394858	      0.90132956	      0.00000000	    -33.21450127	      4.46836322	     11.34700834
      6.08500000	     13.50504298	     -5.30853797	     -0.70797312	      2.62398084	      0.74088033	     -0.26702841	    -27.02138404	     10.28435070	     -1.52610652	     -5.68073986	     31.74464281	     25.42377066	      0.00000000	     18.61503628	     -5.04279409	      0.93846268	    -22.42517925	     21.06196043	      1.94242267	      0.00000000	    -33.19711440	      4.41592778	     11.63901580
      6.09000000	     13.49522547	     -5.30243147	     -0.93599668	      2.63156319	      0.73984289	     -0.26748089	    -27.53983937	     10.06308951	     -1.63185362	     -5.96575768	     32.02472843	     25.90067954	      0.00000000	     18.33181642	     -4.93155457	      0.85587455	    -20.48475899	     20.87490113	      2.94506243	      0.00000000	    -33.20155256	      4.37170608	     11.94702679
